<svg width="36" height="37" viewBox="0 0 36 37" fill="none" xmlns="http://www.w3.org/2000/svg">
<g clip-path="url(#clip0_3993_14)">
<path d="M18 36.875C27.9411 36.875 36 28.8161 36 18.875C36 8.93387 27.9411 0.875 18 0.875C8.05887 0.875 0 8.93387 0 18.875C0 28.8161 8.05887 36.875 18 36.875Z" fill="#0005FB"/>
<path d="M18.0133 27.2495C17.8789 27.2495 17.7444 27.225 17.6222 27.1639C17.3044 27.0172 17.0966 26.6872 17.0966 26.3328V20.4906L13.9189 22.5195C13.4911 22.7883 12.9289 22.6661 12.6477 22.2383C12.3789 21.8106 12.5011 21.2483 12.9289 20.9672L16.7666 18.5228L12.9289 16.1028C12.5011 15.8339 12.3666 15.2717 12.6477 14.8439C12.9166 14.4161 13.4789 14.2939 13.9189 14.5628L17.1089 16.5795V11.6661C17.1089 11.3239 17.2922 11.0183 17.5977 10.8595C17.9033 10.7006 18.2577 10.7128 18.5389 10.9083L24.0266 14.5506C24.2833 14.7217 24.4422 15.015 24.43 15.3206C24.4177 15.6261 24.2711 15.9195 24.0022 16.0906L20.1889 18.5228L24.0022 20.9428C24.2466 21.1017 24.4055 21.3583 24.43 21.6517C24.4544 21.945 24.3322 22.2261 24.1 22.4095L18.6122 27.0295C18.4411 27.1761 18.2333 27.2495 18.0255 27.2495H18.0133ZM18.93 19.9039V24.365L21.9611 21.8228L18.93 19.9039ZM18.93 13.3772V17.1417L21.8266 15.2961L18.93 13.3772Z" fill="white"/>
</g>
<defs>
<clipPath id="clip0_3993_14">
<rect width="36" height="36" fill="white" transform="translate(0 0.875)"/>
</clipPath>
</defs>
</svg>
