<svg width="36" height="36" viewBox="0 0 36 36" fill="none" xmlns="http://www.w3.org/2000/svg">
<path d="M18 36C27.9411 36 36 27.9411 36 18C36 8.05887 27.9411 0 18 0C8.05887 0 0 8.05887 0 18C0 27.9411 8.05887 36 18 36Z" fill="#ACBDC8"/>
<path fill-rule="evenodd" clip-rule="evenodd" d="M17.5083 9.86632L10.9087 13.1662C10.5358 13.3531 10.3004 13.7337 10.3004 14.1506V21.8502C10.3004 22.2671 10.5358 22.6477 10.9087 22.8347L17.5083 26.1345C17.6623 26.2115 17.8317 26.25 18 26.25C18.1683 26.25 18.3377 26.2115 18.4917 26.1345L25.0914 22.8347C25.4642 22.6477 25.6996 22.2671 25.6996 21.8502V14.1506C25.6996 13.7337 25.4642 13.3531 25.0925 13.1662L18.4928 9.86632C18.1826 9.71123 17.8174 9.71123 17.5083 9.86632ZM13.0599 13.9401L18 11.4701L22.9401 13.9401L18 16.4102L13.0599 13.9401ZM11.8882 15.3547L16.9687 17.895V23.9459L11.8882 21.4057V15.3547ZM24.1118 15.3547L19.0313 17.895V23.9459L24.1118 21.4057V15.3547Z" fill="white"/>
</svg>
