<svg width="36" height="36" viewBox="0 0 36 36" fill="#EB0083" xmlns="http://www.w3.org/2000/svg">
<path d="M18 36C27.9411 36 36 27.9411 36 18C36 8.05887 27.9411 0 18 0C8.05887 0 0 8.05887 0 18C0 27.9411 8.05887 36 18 36Z" />
<path d="M24.5007 10.625H11.4993C10.9497 10.625 10.5 11.0817 10.5 11.64V25.86C10.5 26.4183 10.9497 26.875 11.4993 26.875H11.7092C12.2588 26.875 12.7085 26.4183 12.7085 25.86V22.815H24.5007C25.0503 22.815 25.5 22.3583 25.5 21.8V11.64C25.5 11.0817 25.0503 10.625 24.5007 10.625ZM23.2915 16.7149H19.7638V20.2979H16.2362V16.7149H12.7085V13.132H16.2362V16.7149H19.7638V13.132H23.2915V16.7149Z" fill="white"/>
</svg>
