<svg width="36" height="36" viewBox="0 0 36 36" fill="#3FCC7D" xmlns="http://www.w3.org/2000/svg">
<path d="M18 36C27.9411 36 36 27.9411 36 18C36 8.05887 27.9411 0 18 0C8.05887 0 0 8.05887 0 18C0 27.9411 8.05887 36 18 36Z" />
<path fill-rule="evenodd" clip-rule="evenodd" d="M12.2179 12.1833C10.7198 13.6664 9.788 15.7208 9.7777 17.9966C9.7571 22.549 13.4237 26.2569 17.9762 26.2775C20.2866 26.2879 22.3795 25.3487 23.8832 23.8259C25.3633 22.3365 26.2776 20.2841 26.2776 18.0173C26.2776 13.4649 22.5903 9.77761 18.0379 9.77761C15.7653 9.77761 13.7082 10.6965 12.2179 12.1833ZM24.7326 18.0173C24.7326 14.33 21.7252 11.3225 18.0379 11.3225C16.7954 11.3225 15.6302 11.664 14.6311 12.2579L14.9275 12.4967L14.9893 12.5585L16.1119 13.7532C16.2561 13.9077 16.3282 14.124 16.2973 14.3403L16.0192 16.2045C15.9883 16.4414 15.8441 16.6371 15.6382 16.7401L13.949 17.595L13.537 17.9451L13.6503 18.1305L14.4846 19.0266C14.567 19.109 14.6185 19.2017 14.6494 19.315L15.1335 20.9938C15.2159 21.2616 15.1232 21.55 14.9069 21.7354L13.7533 22.7035L13.6644 23.0791C14.3722 23.6917 15.2091 24.159 16.1277 24.4336C16.1591 24.3181 16.2093 24.2123 16.287 24.1249L17.5745 22.7241L18.213 20.9629C18.2748 20.7672 18.4293 20.6127 18.625 20.5406L20.8394 19.7064C20.963 19.6652 21.0969 19.6446 21.2308 19.6755L23.3731 20.1081C23.507 20.1287 23.6306 20.2007 23.7336 20.2934L24.1636 20.7145C24.5293 19.8887 24.7326 18.9759 24.7326 18.0173Z" fill="white"/>
</svg>
