<svg width="36" height="36" viewBox="0 0 36 36" fill="none" xmlns="http://www.w3.org/2000/svg">
<path d="M18 36C27.9411 36 36 27.9411 36 18C36 8.05887 27.9411 0 18 0C8.05887 0 0 8.05887 0 18C0 27.9411 8.05887 36 18 36Z" fill="#ACBDC8"/>
<path fill-rule="evenodd" clip-rule="evenodd" d="M13.875 9.75H22.125C22.672 9.75 23.1966 9.9673 23.5834 10.3541C23.9702 10.7409 24.1875 11.2655 24.1875 11.8125V24.1875C24.1875 24.7345 23.9702 25.2591 23.5834 25.6459C23.1966 26.0327 22.672 26.25 22.125 26.25H13.875C13.328 26.25 12.8034 26.0327 12.4166 25.6459C12.0298 25.2591 11.8125 24.7345 11.8125 24.1875V11.8125C11.8125 11.2655 12.0298 10.7409 12.4166 10.3541C12.8034 9.9673 13.328 9.75 13.875 9.75ZM13.6 12.5687V23.3625H22.4V12.5687H13.6ZM18 14.2188L21.1164 21.7812L18 20.4928L14.8836 21.7812L18 14.2188Z" fill="white"/>
</svg>
