<svg width="36" height="36" viewBox="0 0 36 36" fill="none" xmlns="http://www.w3.org/2000/svg">
<path d="M18 36C27.9411 36 36 27.9411 36 18C36 8.05887 27.9411 0 18 0C8.05887 0 0 8.05887 0 18C0 27.9411 8.05887 36 18 36Z" fill="#ACBDC8"/>
<path fill-rule="evenodd" clip-rule="evenodd" d="M17.3125 26.1354V12.3854L10.4486 11.2414C10.0829 11.1805 9.75 11.4625 9.75 11.8333V24.3667C9.75 24.66 9.96205 24.9103 10.2514 24.9586L17.3125 26.1354ZM18.6875 12.3854V26.1354L25.7486 24.9586C26.038 24.9103 26.25 24.66 26.25 24.3667V11.8333C26.25 11.4625 25.9171 11.1805 25.5514 11.2414L18.6875 12.3854Z" fill="white"/>
</svg>
