<svg width="16" height="16" viewBox="0 0 16 16" fill="none" xmlns="http://www.w3.org/2000/svg">
<path d="M8 1C4.15 1 1 4.15 1 8C1 11.85 4.15 15 8 15C11.85 15 15 11.85 15 8C15 4.15 11.85 1 8 1ZM8.875 10.625C8.875 11.1082 8.48325 11.5 8 11.5V11.5C7.51675 11.5 7.125 11.1082 7.125 10.625V8C7.125 7.51675 7.51675 7.125 8 7.125V7.125C8.48325 7.125 8.875 7.51675 8.875 8V10.625ZM8 6.25C7.475 6.25 7.125 5.9 7.125 5.375C7.125 4.85 7.475 4.5 8 4.5C8.525 4.5 8.875 4.85 8.875 5.375C8.875 5.9 8.525 6.25 8 6.25Z" fill="#003875"/>
</svg>
