<svg width="17" height="16" viewBox="0 0 17 16" fill="none" xmlns="http://www.w3.org/2000/svg">
<path d="M11.3731 9.15088C11.4843 9.26197 11.635 9.32438 11.7921 9.32438C11.9492 9.32438 12.0999 9.26197 12.211 9.15088L13.0999 8.26197C13.6942 7.66834 14.0588 6.8831 14.1287 6.04594C14.1985 5.20878 13.9692 4.37397 13.4815 3.69001L15.1525 2.01886C15.2091 1.96419 15.2543 1.8988 15.2853 1.8265C15.3164 1.7542 15.3327 1.67644 15.3334 1.59776C15.3341 1.51907 15.3191 1.44104 15.2893 1.36821C15.2595 1.29538 15.2155 1.22921 15.1599 1.17357C15.1042 1.11793 15.0381 1.07393 14.9652 1.04413C14.8924 1.01433 14.8144 0.999339 14.7357 1.00002C14.657 1.00071 14.5793 1.01705 14.507 1.04811C14.4347 1.07917 14.3693 1.12432 14.3146 1.18092L12.6436 2.85207C11.9596 2.36422 11.1247 2.13488 10.2874 2.20488C9.45019 2.27487 8.66493 2.63964 8.07138 3.2343L7.18254 4.12321C7.07145 4.23434 7.00904 4.38504 7.00904 4.54218C7.00904 4.69932 7.07145 4.85002 7.18254 4.96115L11.3731 9.15088Z" fill="#A3AEBC"/>
<path d="M8.5037 10.3767L9.65776 9.22262L8.84184 8.4067L7.68778 9.56076L6.77261 8.64559L7.92667 7.49153L7.11075 6.67561L5.9567 7.82967L5.18982 7.06338C5.08162 6.9552 4.93487 6.89443 4.78186 6.89443C4.62886 6.89443 4.48211 6.9552 4.37391 7.06338L3.50836 7.92892C2.92958 8.50695 2.57459 9.27154 2.50654 10.0867C2.4385 10.9018 2.66181 11.7147 3.13676 12.3807L1.50953 14.0079C1.45442 14.0611 1.41046 14.1248 1.38022 14.1952C1.34998 14.2656 1.33406 14.3413 1.3334 14.418C1.33273 14.4946 1.34733 14.5706 1.37634 14.6415C1.40536 14.7124 1.4482 14.7768 1.50238 14.831C1.55656 14.8852 1.62099 14.928 1.6919 14.957C1.76282 14.986 1.8388 15.0006 1.91542 15C1.99203 14.9993 2.06775 14.9834 2.13815 14.9532C2.20855 14.9229 2.27222 14.879 2.32545 14.8238L3.95267 13.1966C4.61877 13.6716 5.4318 13.8949 6.24709 13.8268C7.06237 13.7586 7.82704 13.4035 8.40503 12.8244L9.27057 11.9589C9.37875 11.8507 9.43952 11.7039 9.43952 11.5509C9.43952 11.3979 9.37875 11.2512 9.27057 11.143L8.5037 10.3767Z" fill="#A3AEBC"/>
</svg>
