<svg width="16" height="17" viewBox="0 0 16 17" fill="none" xmlns="http://www.w3.org/2000/svg">
  <path d="M6.39999 11.0638V12.475H10.24V11.0638C11.7083 10.337 12.64 8.85241 12.64 7.19498C12.64 4.81275 10.7017 2.875 8.31998 2.875C5.93823 2.875 4 4.81275 4 7.19498C4 8.85193 4.93168 10.337 6.39999 11.0638ZM5.91999 7.19498C5.91999 5.87163 6.99663 4.79499 8.31998 4.79499C8.58507 4.79499 8.79998 5.00989 8.79998 5.27499C8.79998 5.54008 8.58507 5.75499 8.31998 5.75499C7.52606 5.75499 6.87999 6.40106 6.87999 7.19498C6.87999 7.46007 6.66508 7.67498 6.39999 7.67498C6.13489 7.67498 5.91999 7.46007 5.91999 7.19498Z" fill="#0D592E"/>
  <path d="M6.39975 13.435V14.395C6.39975 14.6604 6.61479 14.875 6.87975 14.875H9.75974C10.0247 14.875 10.2397 14.6604 10.2397 14.395V13.435H6.39975Z" fill="#0D592E"/>
</svg>
