<svg width="16" height="16" viewBox="0 0 16 16" fill="none" xmlns="http://www.w3.org/2000/svg">
<path fill-rule="evenodd" clip-rule="evenodd" d="M9.17519 1.69838L14.8412 12.165C14.9503 12.3677 15.0049 12.5953 14.9996 12.8255C14.9944 13.0558 14.9294 13.2806 14.811 13.4782C14.6927 13.6757 14.525 13.8391 14.3245 13.9523C14.124 14.0656 13.8976 14.1248 13.6673 14.1242H2.33529C2.10406 14.1255 1.87655 14.0661 1.67542 13.952C1.47429 13.8379 1.30656 13.6731 1.18896 13.474C1.07019 13.2773 1.00513 13.0529 1.00029 12.8232C0.995454 12.5935 1.05101 12.3665 1.1614 12.165L6.8274 1.69838C6.94212 1.48711 7.11173 1.31071 7.31833 1.1878C7.52494 1.06488 7.76089 1 8.0013 1C8.2417 1 8.47765 1.06488 8.68426 1.1878C8.89086 1.31071 9.06047 1.48711 9.17519 1.69838ZM8.75 5.875V8.5C8.75 8.98325 8.35825 9.375 7.875 9.375C7.39175 9.375 7 8.98325 7 8.5V5.875C7 5.39175 7.39175 5 7.875 5C8.35825 5 8.75 5.39175 8.75 5.875ZM7.875 10.25C8.4 10.25 8.75 10.6 8.75 11.125C8.75 11.65 8.4 12 7.875 12C7.35 12 7 11.65 7 11.125C7 10.6 7.35 10.25 7.875 10.25Z" fill="#6d3300"/>
</svg>
