<svg width="36" height="36" viewBox="0 0 36 36" fill="#ACBDC8" xmlns="http://www.w3.org/2000/svg">
<path d="M36 18C36 27.9411 27.9411 36 18 36C8.05887 36 0 27.9411 0 18C0 8.05887 8.05887 0 18 0C27.9411 0 36 8.05887 36 18Z" />
<path d="M22.0764 19.2365C21.8912 19.2365 21.7136 19.1629 21.5827 19.032L16.6438 14.0942C16.5129 13.9632 16.4394 13.7856 16.4394 13.6004C16.4394 13.4152 16.5129 13.2376 16.6438 13.1066L17.6914 12.059C18.3909 11.3582 19.3164 10.9283 20.3031 10.8458C21.2898 10.7633 22.2738 11.0336 23.0799 11.6085L25.0494 9.63901C25.1137 9.5723 25.1908 9.51909 25.276 9.48248C25.3612 9.44588 25.4529 9.42662 25.5457 9.42581C25.6383 9.425 25.7304 9.44267 25.8162 9.47779C25.902 9.51291 25.98 9.56477 26.0455 9.63034C26.111 9.69592 26.1629 9.7739 26.198 9.85974C26.2331 9.94557 26.2508 10.0375 26.25 10.1303C26.2493 10.223 26.2299 10.3146 26.1934 10.3999C26.1568 10.4851 26.1036 10.5621 26.0369 10.6266L24.0674 12.5961C24.6423 13.4022 24.9126 14.386 24.8302 15.3727C24.7478 16.3593 24.3182 17.2847 23.6177 17.9844L22.5702 19.032C22.4393 19.1629 22.2617 19.2365 22.0764 19.2365Z" fill="white"/>
<path d="M19.5609 19.1166L18.2008 20.4766L19.1045 21.3798C19.232 21.5073 19.3037 21.6803 19.3037 21.8606C19.3037 22.0409 19.232 22.2138 19.1045 22.3415L18.0845 23.3615C17.4033 24.0439 16.5021 24.4625 15.5412 24.5429C14.5804 24.6231 13.6222 24.36 12.8371 23.8001L10.9194 25.7179C10.8567 25.7828 10.7816 25.8347 10.6986 25.8703C10.6157 25.906 10.5264 25.9247 10.4361 25.9254C10.3458 25.9263 10.2563 25.909 10.1727 25.8749C10.0891 25.8407 10.0132 25.7901 9.94936 25.7264C9.8855 25.6625 9.835 25.5866 9.80081 25.5029C9.76662 25.4194 9.74941 25.3298 9.75019 25.2395C9.75098 25.1492 9.76974 25.06 9.80538 24.977C9.84102 24.8941 9.89283 24.819 9.95778 24.7563L11.8755 22.8386C11.3158 22.0537 11.0526 21.0956 11.1328 20.135C11.213 19.1742 11.6314 18.2731 12.3135 17.5919L13.3336 16.5718C13.4611 16.4443 13.6341 16.3727 13.8144 16.3727C13.9947 16.3727 14.1677 16.4443 14.2952 16.5718L15.199 17.4749L16.5591 16.1148L17.5207 17.0764L16.1606 18.4365L17.2392 19.5151L18.5993 18.155L19.5609 19.1166Z" fill="white"/>
</svg>
