<svg width="36" height="36" viewBox="0 0 36 36" fill="none" xmlns="http://www.w3.org/2000/svg">
<path d="M18 36C27.9411 36 36 27.9411 36 18C36 8.05887 27.9411 0 18 0C8.05887 0 0 8.05887 0 18C0 27.9411 8.05887 36 18 36Z" fill="#ACBDC8"/>
<mask id="path-2-outside-1_9_84" maskUnits="userSpaceOnUse" x="9.08983" y="11.9656" width="18" height="12" fill="black">
<rect fill="white" x="9.08983" y="11.9656" width="18" height="12"/>
<path fill-rule="evenodd" clip-rule="evenodd" d="M15.6339 21.7423C15.9294 22.0378 15.9294 22.517 15.6339 22.8125C15.3383 23.108 14.8592 23.108 14.5637 22.8125L10.3292 18.578C10.01 18.2588 10.01 17.7413 10.3292 17.4222L14.5642 13.1872C14.8597 12.8917 15.3389 12.8917 15.6344 13.1872C15.9299 13.4827 15.9299 13.9619 15.6344 14.2574L11.8917 18.0001L15.6339 21.7423ZM20.3661 14.2577C20.0706 13.9622 20.0706 13.483 20.3661 13.1875C20.6617 12.892 21.1408 12.892 21.4363 13.1875L25.6708 17.422C25.99 17.7412 25.99 18.2587 25.6708 18.5778L21.4358 22.8128C21.1403 23.1083 20.6611 23.1083 20.3656 22.8128C20.0701 22.5173 20.0701 22.0381 20.3656 21.7426L24.1083 17.9999L20.3661 14.2577Z"/>
</mask>
<path fill-rule="evenodd" clip-rule="evenodd" d="M15.6339 21.7423C15.9294 22.0378 15.9294 22.517 15.6339 22.8125C15.3383 23.108 14.8592 23.108 14.5637 22.8125L10.3292 18.578C10.01 18.2588 10.01 17.7413 10.3292 17.4222L14.5642 13.1872C14.8597 12.8917 15.3389 12.8917 15.6344 13.1872C15.9299 13.4827 15.9299 13.9619 15.6344 14.2574L11.8917 18.0001L15.6339 21.7423ZM20.3661 14.2577C20.0706 13.9622 20.0706 13.483 20.3661 13.1875C20.6617 12.892 21.1408 12.892 21.4363 13.1875L25.6708 17.422C25.99 17.7412 25.99 18.2587 25.6708 18.5778L21.4358 22.8128C21.1403 23.1083 20.6611 23.1083 20.3656 22.8128C20.0701 22.5173 20.0701 22.0381 20.3656 21.7426L24.1083 17.9999L20.3661 14.2577Z" fill="white"/>
<path d="M15.6339 22.8125L15.8107 22.9893L15.8107 22.9893L15.6339 22.8125ZM15.6339 21.7423L15.4571 21.9191L15.6339 21.7423ZM14.5637 22.8125L14.7404 22.6357H14.7404L14.5637 22.8125ZM10.3292 18.578L10.1524 18.7548L10.1524 18.7548L10.3292 18.578ZM10.3292 17.4222L10.506 17.5989H10.506L10.3292 17.4222ZM14.5642 13.1872L14.7409 13.364L14.5642 13.1872ZM15.6344 13.1872L15.4576 13.364L15.6344 13.1872ZM15.6344 14.2574L15.8112 14.4342L15.6344 14.2574ZM11.8917 18.0001L11.7149 17.8233L11.5382 18.0001L11.7149 18.1769L11.8917 18.0001ZM20.3661 13.1875L20.5429 13.3643V13.3643L20.3661 13.1875ZM20.3661 14.2577L20.1893 14.4345V14.4345L20.3661 14.2577ZM21.4363 13.1875L21.2596 13.3643V13.3643L21.4363 13.1875ZM25.6708 17.422L25.494 17.5988H25.494L25.6708 17.422ZM25.6708 18.5778L25.8476 18.7546L25.6708 18.5778ZM21.4358 22.8128L21.2591 22.636L21.4358 22.8128ZM20.3656 21.7426L20.1888 21.5658L20.3656 21.7426ZM24.1083 17.9999L24.2851 18.1767L24.4618 17.9999L24.2851 17.8231L24.1083 17.9999ZM15.8107 22.9893C16.2038 22.5961 16.2038 21.9587 15.8107 21.5655L15.4571 21.9191C15.655 22.117 15.655 22.4378 15.4571 22.6357L15.8107 22.9893ZM14.3869 22.9893C14.78 23.3824 15.4175 23.3824 15.8107 22.9893L15.4571 22.6357C15.2592 22.8336 14.9383 22.8336 14.7404 22.6357L14.3869 22.9893ZM10.1524 18.7548L14.3869 22.9893L14.7404 22.6357L10.506 18.4012L10.1524 18.7548ZM10.1524 17.2454C9.73563 17.6622 9.73563 18.338 10.1524 18.7548L10.506 18.4012C10.2844 18.1797 10.2844 17.8205 10.506 17.5989L10.1524 17.2454ZM14.3874 13.0104L10.1524 17.2454L10.506 17.5989L14.7409 13.364L14.3874 13.0104ZM15.8112 13.0104C15.418 12.6173 14.7806 12.6173 14.3874 13.0104L14.7409 13.364C14.9388 13.1661 15.2597 13.1661 15.4576 13.364L15.8112 13.0104ZM15.8112 14.4342C16.2043 14.041 16.2043 13.4036 15.8112 13.0104L15.4576 13.364C15.6555 13.5619 15.6555 13.8827 15.4576 14.0806L15.8112 14.4342ZM12.0685 18.1769L15.8112 14.4342L15.4576 14.0806L11.7149 17.8233L12.0685 18.1769ZM15.8107 21.5655L12.0685 17.8233L11.7149 18.1769L15.4571 21.9191L15.8107 21.5655ZM20.1893 13.0107C19.7962 13.4039 19.7962 14.0413 20.1893 14.4345L20.5429 14.0809C20.345 13.883 20.345 13.5622 20.5429 13.3643L20.1893 13.0107ZM21.6131 13.0107C21.22 12.6176 20.5825 12.6176 20.1893 13.0107L20.5429 13.3643C20.7408 13.1664 21.0617 13.1664 21.2596 13.3643L21.6131 13.0107ZM25.8476 17.2452L21.6131 13.0107L21.2596 13.3643L25.494 17.5988L25.8476 17.2452ZM25.8476 18.7546C26.2644 18.3378 26.2644 17.662 25.8476 17.2452L25.494 17.5988C25.7156 17.8203 25.7156 18.1795 25.494 18.4011L25.8476 18.7546ZM21.6126 22.9896L25.8476 18.7546L25.494 18.4011L21.2591 22.636L21.6126 22.9896ZM20.1888 22.9896C20.582 23.3827 21.2194 23.3827 21.6126 22.9896L21.2591 22.636C21.0612 22.8339 20.7403 22.8339 20.5424 22.636L20.1888 22.9896ZM20.1888 21.5658C19.7957 21.959 19.7957 22.5964 20.1888 22.9896L20.5424 22.636C20.3445 22.4381 20.3445 22.1173 20.5424 21.9194L20.1888 21.5658ZM23.9315 17.8231L20.1888 21.5658L20.5424 21.9194L24.2851 18.1767L23.9315 17.8231ZM20.1893 14.4345L23.9315 18.1767L24.2851 17.8231L20.5429 14.0809L20.1893 14.4345Z" fill="white" mask="url(#path-2-outside-1_9_84)"/>
</svg>
