<svg width="36" height="37" viewBox="0 0 36 37" fill="#00C3D9" xmlns="http://www.w3.org/2000/svg">
<path d="M18 36.875C27.9411 36.875 36 28.8161 36 18.875C36 8.93387 27.9411 0.875 18 0.875C8.05887 0.875 0 8.93387 0 18.875C0 28.8161 8.05887 36.875 18 36.875Z" />
<path d="M11.4993 11.5H24.5007C25.0503 11.5 25.5 11.9567 25.5 12.515V22.675C25.5 23.2333 25.0503 23.69 24.5007 23.69H12.7085V26.735C12.7085 27.2933 12.2588 27.75 11.7092 27.75H11.4993C10.9497 27.75 10.5 27.2933 10.5 26.735V12.515C10.5 11.9567 10.9497 11.5 11.4993 11.5Z" fill="white"/>
</svg>
