<svg width="36" height="36" viewBox="0 0 36 36" fill="#FF6F00" xmlns="http://www.w3.org/2000/svg">
<path d="M18 36C27.9411 36 36 27.9411 36 18C36 8.05887 27.9411 0 18 0C8.05887 0 0 8.05887 0 18C0 27.9411 8.05887 36 18 36Z" />
<path fill-rule="evenodd" clip-rule="evenodd" d="M18.1974 9.12488C21.0942 9.25941 23.4082 11.654 23.4082 14.5868V14.82C23.4082 18.0487 19.0404 22.7034 18.583 23.1788C18.4036 23.3671 18.1256 23.4658 17.9462 23.4658C17.7669 23.4658 17.4888 23.3671 17.3095 23.1788C16.861 22.7034 12.4843 18.0487 12.4843 14.82V14.5868C12.4843 11.654 14.7893 9.25941 17.6951 9.12488H18.1974ZM15.8834 14.5868C15.8834 15.7258 16.8072 16.6406 17.9373 16.6406C19.0763 16.6406 19.9911 15.7258 19.9911 14.5868C19.9911 13.4478 19.0763 12.533 17.9373 12.533C16.7983 12.533 15.8834 13.4478 15.8834 14.5868Z" fill="white"/>
<path d="M22.6279 21.0711C22.7534 20.9007 22.8611 20.7393 22.9687 20.5689L22.9776 20.5599C24.3319 21.2415 25.1481 22.2191 25.1481 23.3312C25.1481 25.4927 22.0718 27.125 18 27.125C13.9283 27.125 10.852 25.4927 10.852 23.3312C10.852 22.2371 11.6413 21.2774 12.9507 20.5958C13.0493 20.7483 13.148 20.9007 13.2646 21.0622C13.5157 21.4209 13.7668 21.7528 14.018 22.0756C13.139 22.4702 12.6368 22.9456 12.6368 23.3312C12.6368 24.1294 14.7713 25.3312 17.9911 25.3312C21.2108 25.3312 23.3454 24.1294 23.3454 23.3312C23.3454 22.9366 22.8162 22.4433 21.9014 22.0487C21.9303 22.0109 21.9595 21.9728 21.9889 21.9344C22.1967 21.6633 22.4157 21.3775 22.6279 21.0711Z" fill="white"/>
</svg>
