<svg width="72" height="72" id="img" viewBox="0 0 72 72" fill="#00C3D9" xmlns="http://www.w3.org/2000/svg">
<path d="M72 36C72 55.8823 55.8823 72 36 72C16.1177 72 0 55.8823 0 36C0 16.1177 16.1177 0 36 0C55.8823 0 72 16.1177 72 36Z" />
<path d="M48.5686 32.0685C48.5686 25.3199 43.244 19.8096 36.5779 19.5C36.3922 19.5 36.1858 19.5 36.0001 19.5C35.8143 19.5 35.608 19.5 35.4222 19.5C28.7355 19.8096 23.4316 25.3199 23.4316 32.0685C23.4316 32.151 23.4316 32.2542 23.4316 32.3368C23.4316 32.4193 23.4316 32.5225 23.4316 32.6051C23.4316 40.0347 33.5029 50.7458 34.5348 51.8396C34.9475 52.273 35.5873 52.5 36.0001 52.5C36.4128 52.5 37.0526 52.273 37.4654 51.8396C38.5179 50.7458 48.5686 40.0347 48.5686 32.6051C48.5686 32.5019 48.5686 32.4193 48.5686 32.3368C48.5686 32.2542 48.5686 32.151 48.5686 32.0685ZM35.9794 36.7946C33.3791 36.7946 31.2534 34.6895 31.2534 32.0685C31.2534 29.4475 33.3584 27.3424 35.9794 27.3424C38.6005 27.3424 40.7055 29.4475 40.7055 32.0685C40.7055 34.6895 38.6005 36.7946 35.9794 36.7946Z" fill="white"/>
</svg>
