<svg width="36" height="36" viewBox="0 0 36 36" fill="#00C3D9" xmlns="http://www.w3.org/2000/svg">
<path d="M18 36C27.9411 36 36 27.9411 36 18C36 8.05887 27.9411 0 18 0C8.05887 0 0 8.05887 0 18C0 27.9411 8.05887 36 18 36Z" fill="#00C3D9"/>
<path d="M24.8063 9.84172L20.0625 11.7006L16.35 9.84172C16.1437 9.73845 15.8344 9.73845 15.525 9.84172L10.3688 11.9071C9.95625 12.0104 9.75 12.4235 9.75 12.8365V25.2289C9.75 25.9517 10.4719 26.4681 11.1937 26.1583L15.9375 24.2994L19.65 26.1583C19.9594 26.2615 20.1656 26.2615 20.475 26.1583L25.6312 24.1962C26.0437 24.0929 26.25 23.6798 26.25 23.2667V10.7711C26.25 10.0483 25.5281 9.53191 24.8063 9.84172ZM16.9688 12.4235L19.0312 13.4561V23.5765L16.9688 22.5439V12.4235ZM11.8125 13.5594L14.9062 12.3202V22.4406L11.8125 23.6798V13.5594ZM24.1875 22.5439L21.0938 23.6798V13.5594L24.1875 12.3202V22.5439Z" fill="white"/>
</svg>
