<svg width="36" height="36" viewBox="0 0 36 36" fill="#00C3D9" xmlns="http://www.w3.org/2000/svg">
<path d="M36 18C36 27.9411 27.9411 36 18 36C8.05887 36 0 27.9411 0 18C0 8.05887 8.05887 0 18 0C27.9411 0 36 8.05887 36 18Z" />
<path d="M25.9484 24.4866L22.7417 21.2794C23.6491 20.0728 24.1852 18.5878 24.1852 16.9688C24.1852 12.9881 20.9476 9.75 16.9676 9.75C12.9876 9.75 9.75 12.9881 9.75 16.9688C9.75 20.9494 12.9876 24.1875 16.9676 24.1875C18.5864 24.1875 20.0815 23.6409 21.2776 22.7438L24.4843 25.9509C24.6802 26.1572 24.9482 26.25 25.2163 26.25C25.4844 26.25 25.7422 26.1469 25.9484 25.9509C26.3505 25.5488 26.3505 24.8991 25.9484 24.4969V24.4866ZM11.8122 16.9688C11.8122 14.1225 14.1218 11.8125 16.9676 11.8125C19.8134 11.8125 22.1231 14.1225 22.1231 16.9688C22.1231 19.815 19.8134 22.125 16.9676 22.125C14.1218 22.125 11.8122 19.815 11.8122 16.9688Z" fill="white"/>
</svg>
