<svg width="36" height="36" viewBox="0 0 36 36" fill="#5B38FF" xmlns="http://www.w3.org/2000/svg">
<path d="M18 36C27.9411 36 36 27.9411 36 18C36 8.05887 27.9411 0 18 0C8.05887 0 0 8.05887 0 18C0 27.9411 8.05887 36 18 36Z" />
<path d="M24.0844 10.2656C23.8781 9.95625 23.5688 9.75 23.1562 9.75H12.8438C12.4312 9.75 12.1219 9.95625 11.9156 10.2656C9.75 14.3906 9.75 14.5969 9.75 14.9062C9.75 16.0406 10.6781 16.9688 11.8125 16.9688V25.2188C11.8125 25.8375 12.225 26.25 12.8438 26.25H23.1562C23.775 26.25 24.1875 25.8375 24.1875 25.2188V16.9688C25.3219 16.9688 26.25 16.0406 26.25 14.9062C26.25 14.5969 26.25 14.3906 24.0844 10.2656ZM20.0625 24.1875V20.0625H15.9375V24.1875H13.875V16.6594C14.1844 16.8656 14.4937 16.9688 14.9062 16.9688C15.525 16.9688 16.0406 16.6594 16.4531 16.2469C16.8656 16.6594 17.3813 16.9688 18 16.9688C18.6187 16.9688 19.1344 16.6594 19.5469 16.2469C19.9594 16.6594 20.475 16.9688 21.0938 16.9688C21.5063 16.9688 21.8156 16.8656 22.125 16.6594V24.1875H20.0625Z" fill="white"/>
</svg>
