<svg width="36" height="36" viewBox="0 0 36 36" fill="#EB0C00" xmlns="http://www.w3.org/2000/svg">
<path d="M36 18C36 27.9411 27.9411 36 18 36C8.05887 36 0 27.9411 0 18C0 8.05887 8.05887 0 18 0C27.9411 0 36 8.05887 36 18Z" />
<path fill-rule="evenodd" clip-rule="evenodd" d="M18.2958 9.75C21.7157 9.90882 24.4474 12.7358 24.4474 16.1981V16.4733C24.4474 20.285 19.2911 25.7801 18.7511 26.3413C18.5393 26.5636 18.2111 26.6801 17.9993 26.6801C17.7876 26.6801 17.4593 26.5636 17.2476 26.3413C16.7182 25.7801 11.5513 20.285 11.5513 16.4733V16.1981C11.5513 12.7358 14.2724 9.90882 17.7029 9.75H18.2958ZM22.1533 17.9168C22.4846 17.9168 22.7533 17.6482 22.7533 17.3168V15.0793C22.7533 14.748 22.4846 14.4793 22.1533 14.4793H13.8241C13.4927 14.4793 13.2241 14.748 13.2241 15.0793V17.3168C13.2241 17.6482 13.4927 17.9168 13.8241 17.9168H22.1533Z" fill="white"/>
</svg>
